<svg width="16" height="16" viewBox="0 0 16 16" fill="none" xmlns="http://www.w3.org/2000/svg">
<path d="M6 11.9997C5.63333 11.9997 5.31944 11.8691 5.05833 11.608C4.79722 11.3469 4.66667 11.033 4.66667 10.6663V2.66634C4.66667 2.29967 4.79722 1.98579 5.05833 1.72467C5.31944 1.46356 5.63333 1.33301 6 1.33301H12C12.3667 1.33301 12.6806 1.46356 12.9417 1.72467C13.2028 1.98579 13.3333 2.29967 13.3333 2.66634V10.6663C13.3333 11.033 13.2028 11.3469 12.9417 11.608C12.6806 11.8691 12.3667 11.9997 12 11.9997H6ZM6 10.6663H12V2.66634H6V10.6663ZM3.33333 14.6663C2.96667 14.6663 2.65278 14.5358 2.39167 14.2747C2.13056 14.0136 2 13.6997 2 13.333V4.66634C2 4.47745 2.06389 4.31912 2.19167 4.19134C2.31944 4.06356 2.47778 3.99967 2.66667 3.99967C2.85556 3.99967 3.01389 4.06356 3.14167 4.19134C3.26944 4.31912 3.33333 4.47745 3.33333 4.66634V13.333H10C10.1889 13.333 10.3472 13.3969 10.475 13.5247C10.6028 13.6525 10.6667 13.8108 10.6667 13.9997C10.6667 14.1886 10.6028 14.3469 10.475 14.4747C10.3472 14.6025 10.1889 14.6663 10 14.6663H3.33333Z" fill="#5F6368"/>
</svg>
