<svg width="24" height="24" viewBox="0 0 24 24" fill="none" xmlns="http://www.w3.org/2000/svg">
<path d="M10.8001 11.9998L14.7001 8.0998C14.8834 7.91647 14.9751 7.68314 14.9751 7.3998C14.9751 7.11647 14.8834 6.88314 14.7001 6.6998C14.5168 6.51647 14.2834 6.4248 14.0001 6.4248C13.7168 6.4248 13.4834 6.51647 13.3001 6.6998L8.7001 11.2998C8.6001 11.3998 8.52926 11.5081 8.4876 11.6248C8.44593 11.7415 8.4251 11.8665 8.4251 11.9998C8.4251 12.1331 8.44593 12.2581 8.4876 12.3748C8.52926 12.4915 8.6001 12.5998 8.7001 12.6998L13.3001 17.2998C13.4834 17.4831 13.7168 17.5748 14.0001 17.5748C14.2834 17.5748 14.5168 17.4831 14.7001 17.2998C14.8834 17.1165 14.9751 16.8831 14.9751 16.5998C14.9751 16.3165 14.8834 16.0831 14.7001 15.8998L10.8001 11.9998Z" fill="#C7C7C7"/>
</svg>
