<svg width="40" height="40" viewBox="0 0 40 40" fill="none" xmlns="http://www.w3.org/2000/svg">
<path d="M18.7513 21.2503H10.418C10.0638 21.2503 9.767 21.1305 9.52755 20.8907C9.28783 20.651 9.16797 20.3541 9.16797 19.9999C9.16797 19.6455 9.28783 19.3487 9.52755 19.1095C9.767 18.87 10.0638 18.7503 10.418 18.7503H18.7513V10.417C18.7513 10.0628 18.8712 9.76602 19.1109 9.52658C19.3506 9.28685 19.6476 9.16699 20.0017 9.16699C20.3562 9.16699 20.653 9.28685 20.8921 9.52658C21.1316 9.76602 21.2513 10.0628 21.2513 10.417V18.7503H29.5846C29.9388 18.7503 30.2356 18.8702 30.4751 19.1099C30.7148 19.3496 30.8346 19.6466 30.8346 20.0007C30.8346 20.3552 30.7148 20.652 30.4751 20.8912C30.2356 21.1306 29.9388 21.2503 29.5846 21.2503H21.2513V29.5837C21.2513 29.9378 21.1314 30.2346 20.8917 30.4741C20.652 30.7138 20.3551 30.8337 20.0009 30.8337C19.6464 30.8337 19.3496 30.7138 19.1105 30.4741C18.871 30.2346 18.7513 29.9378 18.7513 29.5837V21.2503Z" fill="#777777"/>
</svg>
