<svg width="24" height="24" viewBox="0 0 24 24" fill="none" xmlns="http://www.w3.org/2000/svg">
<path d="M11.664 13.279L15.737 9.20578C15.8755 9.06744 16.0496 8.99661 16.2593 8.99328C16.4688 8.99011 16.6461 9.06094 16.7911 9.20578C16.9359 9.35078 17.0083 9.52644 17.0083 9.73278C17.0083 9.93911 16.9359 10.1148 16.7911 10.2598L12.2968 14.754C12.2031 14.8475 12.1044 14.9135 12.0005 14.952C11.8967 14.9905 11.7845 15.0098 11.664 15.0098C11.5436 15.0098 11.4314 14.9905 11.3275 14.952C11.2237 14.9135 11.125 14.8475 11.0313 14.754L6.53705 10.2598C6.39872 10.1213 6.32788 9.94719 6.32455 9.73753C6.32138 9.52803 6.39222 9.35078 6.53705 9.20578C6.68205 9.06094 6.85772 8.98853 7.06405 8.98853C7.27038 8.98853 7.44605 9.06094 7.59105 9.20578L11.664 13.279Z" fill="white"/>
</svg>
