<svg width="24" height="24" viewBox="0 0 24 24" fill="none" xmlns="http://www.w3.org/2000/svg">
<path d="M4.30775 21.5C3.80258 21.5 3.375 21.325 3.025 20.975C2.675 20.625 2.5 20.1974 2.5 19.6923V10.3078C2.5 9.80259 2.675 9.375 3.025 9.025C3.375 8.675 3.80258 8.5 4.30775 8.5H19.6923C20.1974 8.5 20.625 8.675 20.975 9.025C21.325 9.375 21.5 9.80259 21.5 10.3078V19.6923C21.5 20.1974 21.325 20.625 20.975 20.975C20.625 21.325 20.1974 21.5 19.6923 21.5H4.30775ZM4.30775 20H19.6923C19.7693 20 19.8398 19.9679 19.9038 19.9038C19.9679 19.8398 20 19.7693 20 19.6923V10.3078C20 10.2308 19.9679 10.1603 19.9038 10.0963C19.8398 10.0321 19.7693 10 19.6923 10H4.30775C4.23075 10 4.16025 10.0321 4.09625 10.0963C4.03208 10.1603 4 10.2308 4 10.3078V19.6923C4 19.7693 4.03208 19.8398 4.09625 19.9038C4.16025 19.9679 4.23075 20 4.30775 20ZM5 7.1155C4.78717 7.1155 4.609 7.04367 4.4655 6.9C4.32183 6.7565 4.25 6.57833 4.25 6.3655C4.25 6.15267 4.32183 5.97442 4.4655 5.83075C4.609 5.68725 4.78717 5.6155 5 5.6155H19C19.2128 5.6155 19.391 5.68725 19.5345 5.83075C19.6782 5.97442 19.75 6.15267 19.75 6.3655C19.75 6.57833 19.6782 6.7565 19.5345 6.9C19.391 7.04367 19.2128 7.1155 19 7.1155H5ZM8 4.23075C7.78717 4.23075 7.609 4.159 7.4655 4.0155C7.32183 3.87183 7.25 3.69358 7.25 3.48075C7.25 3.26792 7.32183 3.08975 7.4655 2.94625C7.609 2.80258 7.78717 2.73075 8 2.73075H16C16.2128 2.73075 16.391 2.80258 16.5345 2.94625C16.6782 3.08975 16.75 3.26792 16.75 3.48075C16.75 3.69358 16.6782 3.87183 16.5345 4.0155C16.391 4.159 16.2128 4.23075 16 4.23075H8Z" fill="white"/>
<path d="M10.565 16.6429L10.1597 18.2527C10.1424 18.3294 10.1055 18.3898 10.0489 18.4338C9.99237 18.4779 9.92335 18.5 9.84187 18.5C9.73353 18.5 9.64482 18.4568 9.57572 18.3705C9.50669 18.2842 9.48708 18.1893 9.51687 18.0857L9.8775 16.6429H8.55429C8.43822 16.6429 8.34494 16.5985 8.27445 16.5098C8.20388 16.4211 8.18349 16.3211 8.21328 16.2098C8.23355 16.1282 8.27507 16.064 8.33782 16.017C8.40065 15.97 8.47281 15.9464 8.55429 15.9464H10.0516L10.5248 14.0536H9.20162C9.08555 14.0536 8.99227 14.0092 8.92177 13.9205C8.8512 13.8319 8.83081 13.7318 8.8606 13.6205C8.8808 13.539 8.92232 13.4748 8.98515 13.4277C9.0479 13.3807 9.12006 13.3571 9.20162 13.3571H10.6989L11.1044 11.7473C11.1216 11.6706 11.1585 11.6102 11.215 11.5662C11.2716 11.5221 11.3406 11.5 11.4222 11.5C11.5305 11.5 11.6192 11.5432 11.6882 11.6295C11.7572 11.7158 11.7769 11.8107 11.7472 11.9143L11.3864 13.3571H13.3061L13.7114 11.7473C13.7287 11.6706 13.7656 11.6102 13.8222 11.5662C13.8787 11.5221 13.9478 11.5 14.0292 11.5C14.1376 11.5 14.2263 11.5432 14.2954 11.6295C14.3644 11.7158 14.384 11.8107 14.3542 11.9143L13.9936 13.3571H15.3168C15.4329 13.3571 15.5262 13.4015 15.5967 13.4902C15.6672 13.5789 15.6876 13.6789 15.6578 13.7902C15.6376 13.8718 15.596 13.936 15.5333 13.983C15.4705 14.03 15.3983 14.0536 15.3168 14.0536H13.8195L13.3463 15.9464H14.6695C14.7856 15.9464 14.8788 15.9908 14.9493 16.0795C15.0199 16.1681 15.0403 16.2682 15.0105 16.3795C14.9903 16.461 14.9488 16.5252 14.886 16.5723C14.8232 16.6193 14.751 16.6429 14.6695 16.6429H13.1722L12.7667 18.2527C12.7495 18.3294 12.7126 18.3898 12.6561 18.4338C12.5996 18.4779 12.5305 18.5 12.4489 18.5C12.3406 18.5 12.2519 18.4568 12.1829 18.3705C12.1139 18.2842 12.0942 18.1893 12.1239 18.0857L12.4847 16.6429H10.565ZM10.7391 15.9464H12.6588L13.132 14.0536H11.2123L10.7391 15.9464Z" fill="white" stroke="white" stroke-width="0.4"/>
</svg>
