<svg width="24" height="24" viewBox="0 0 24 24" fill="none" xmlns="http://www.w3.org/2000/svg">
<path d="M6.5 21.5V17.423C5.86933 17.1525 5.30817 16.7942 4.8165 16.348C4.32483 15.9018 3.9065 15.3948 3.5615 14.827C3.21667 14.259 2.95358 13.6493 2.77225 12.998C2.59075 12.3468 2.5 11.6808 2.5 11C2.5 8.50767 3.38658 6.46792 5.15975 4.88075C6.93292 3.29358 9.21275 2.5 11.9993 2.5C14.7856 2.5 17.0657 3.29358 18.8395 4.88075C20.6132 6.46792 21.5 8.50767 21.5 11C21.5 11.6808 21.4093 12.3468 21.2278 12.998C21.0464 13.6493 20.7833 14.259 20.4385 14.827C20.0935 15.3948 19.6752 15.9018 19.1835 16.348C18.6918 16.7942 18.1307 17.1531 17.5 17.4248V21.5H6.5ZM8 20H9.2115V18.2308H10.9808V20H13.0193V18.2308H14.7885V20H16V16.45C16.6205 16.2808 17.1766 16.0196 17.6683 15.6663C18.1599 15.3131 18.5787 14.8963 18.9245 14.416C19.2703 13.9355 19.5361 13.4053 19.7218 12.8255C19.9072 12.2457 20 11.6372 20 11C20 8.91667 19.2625 7.22917 17.7875 5.9375C16.3125 4.64583 14.3833 4 12 4C9.61667 4 7.6875 4.64583 6.2125 5.9375C4.7375 7.22917 4 8.91667 4 11C4 11.6372 4.09275 12.2457 4.27825 12.8255C4.46392 13.4053 4.72967 13.9355 5.0755 14.416C5.42133 14.8963 5.84267 15.3131 6.3395 15.6663C6.83617 16.0196 7.38967 16.2808 8 16.45V20ZM10.5963 15H13.4038L12 12.1923L10.5963 15ZM8.50175 12.8077C8.99925 12.8077 9.42458 12.6306 9.77775 12.2762C10.1311 11.9219 10.3078 11.4959 10.3078 10.9983C10.3078 10.5007 10.1306 10.0754 9.77625 9.72225C9.42192 9.36892 8.99592 9.19225 8.49825 9.19225C8.00075 9.19225 7.57542 9.36942 7.22225 9.72375C6.86892 10.0781 6.69225 10.5041 6.69225 11.0017C6.69225 11.4993 6.86942 11.9246 7.22375 12.2778C7.57808 12.6311 8.00408 12.8077 8.50175 12.8077ZM15.5017 12.8077C15.9993 12.8077 16.4246 12.6306 16.7778 12.2762C17.1311 11.9219 17.3077 11.4959 17.3077 10.9983C17.3077 10.5007 17.1306 10.0754 16.7762 9.72225C16.4219 9.36892 15.9959 9.19225 15.4983 9.19225C15.0007 9.19225 14.5754 9.36942 14.2223 9.72375C13.8689 10.0781 13.6923 10.5041 13.6923 11.0017C13.6923 11.4993 13.8694 11.9246 14.2238 12.2778C14.5781 12.6311 15.0041 12.8077 15.5017 12.8077Z" fill="white"/>
</svg>
